<svg xmlns="http://www.w3.org/2000/svg" viewBox="0 0 600 380">
<defs>
  <linearGradient id="metal" x2="0" y2="1"><stop stop-color="#fafafa"/><stop offset=".45" stop-color="#d3d3d3"/><stop offset="1" stop-color="#8e8e8e"/></linearGradient>
  <pattern id="lines" width="8" height="8" patternUnits="userSpaceOnUse"><path d="M0 8 8 0" stroke="#999" stroke-width=".5"/></pattern>
</defs>
<symbol id="stock" viewBox="0 0 600 380"><g stroke="#555" stroke-width="2" stroke-linejoin="round"><path d="m145 130 220-55 105 74-219 57Z" fill="#eee"/><path d="m145 130 106 76v127l-106-77Z" fill="#aaa"/><path d="m251 206 219-57v126l-219 58Z" fill="url(#metal)"/><path d="m145 100 220-55m-220 47v16m220-71v16" fill="none" stroke="#888"/><path d="m490 154v123m-8-123h16m-16 123h16" fill="none" stroke="#888"/></g></symbol>
<symbol id="milling" viewBox="0 0 600 380"><g stroke="#555" stroke-width="2" stroke-linejoin="round"><path d="m145 177 220-55 105 74-219 57Z" fill="#eee"/><path d="m145 177 106 76v100l-106-77Z" fill="#999"/><path d="m251 253 219-57v100l-219 57Z" fill="url(#metal)"/><ellipse cx="306" cy="187" rx="61" ry="24" fill="#777"/><path d="M245 187v18c20 25 102 25 122-2v-16" fill="#aaa"/><ellipse cx="306" cy="204" rx="59" ry="20" fill="#ddd"/><path d="M264 20h84v65h-84Z" fill="#bdbdbd"/><path d="M286 85h40v49h-40Z" fill="url(#metal)"/><path d="M295 134h23v54h-23Z" fill="#ccc"/><path d="m295 140 23 10m-23 2 23 10m-23 2 23 10m-23 2 23 10" fill="none"/><path d="m233 199-10 14m18-7-3 18m135-19 14 10m-24 4 3 13" fill="none" stroke="#999"/></g></symbol>
<symbol id="block" viewBox="0 0 600 380"><g stroke="#555" stroke-width="2" stroke-linejoin="round"><path d="m145 130 220-55 105 74-219 57Z" fill="#eee"/><path d="m145 130 106 76v127l-106-77Z" fill="#aaa"/><path d="m251 206 219-57v126l-219 58Z" fill="url(#metal)"/><ellipse cx="305" cy="135" rx="57" ry="23" fill="#777"/><path d="M248 135v12c23 18 90 15 114-4v-8" fill="#bbb"/><ellipse cx="225" cy="129" rx="12" ry="5" fill="#777"/><ellipse cx="353" cy="97" rx="12" ry="5" fill="#777"/><ellipse cx="399" cy="142" rx="12" ry="5" fill="#777"/><ellipse cx="269" cy="177" rx="12" ry="5" fill="#777"/><ellipse cx="310" cy="255" rx="10" ry="16" fill="#666" transform="rotate(15 310 255)"/><ellipse cx="414" cy="227" rx="10" ry="16" fill="#666" transform="rotate(15 414 227)"/></g></symbol>
<symbol id="shaft" viewBox="0 0 600 380"><g transform="translate(20 -5) rotate(-18 300 190)" stroke="#555" stroke-width="2"><path d="M98 158h88v-20h56v-22h73v24h67v22h89v62h-89v22h-67v20h-73v-22h-56v-22H98Z" fill="url(#metal)"/><ellipse cx="98" cy="190" rx="16" ry="32" fill="#ddd"/><path d="M186 158v64m56-84v106m73-104v106m67-84v62" fill="none"/><ellipse cx="471" cy="193" rx="16" ry="31" fill="#aaa"/><ellipse cx="471" cy="193" rx="7" ry="14" fill="#666"/><path d="M72 290h428m-428-8v16m428-16v16" fill="none" stroke="#999"/></g></symbol>
<symbol id="flange" viewBox="0 0 600 380"><g stroke="#555" stroke-width="2"><path d="M184 183v30a116 114 0 0 0 232 0v-30" fill="#999"/><ellipse cx="300" cy="173" rx="116" ry="112" fill="url(#metal)"/><ellipse cx="300" cy="173" rx="49" ry="47" fill="#888"/><path d="M252 175a49 46 0 0 1 96 0v9a49 37 0 0 0-96 0Z" fill="#555"/><g fill="#666"><circle cx="300" cy="91" r="12"/><circle cx="370" cy="129" r="12"/><circle cx="370" cy="215" r="12"/><circle cx="300" cy="254" r="12"/><circle cx="230" cy="215" r="12"/><circle cx="230" cy="129" r="12"/></g><path d="M151 53h298m-298-8v16m298-16v16M145 173h310" stroke="#888" stroke-dasharray="5 5" fill="none"/></g></symbol>
<symbol id="turning" viewBox="0 0 600 380"><use href="#shaft"/><g stroke="#555" stroke-width="2"><path d="m300 30 60 20-20 80-22 24-19-32Z" fill="#bbb"/><path d="m318 154 15 7 10-24" fill="#777"/><path d="M109 81c-30 13-36 43-17 63m-17-5 17 5 6-16" fill="none"/><path d="m328 174 6 12m9-15 9 4" stroke="#888"/></g></symbol>
<symbol id="drilling" viewBox="0 0 600 380"><use href="#block"/><g stroke="#555" stroke-width="2"><path d="M250 8h40v54h-40Z" fill="#aaa"/><path d="M259 62h22v88l-11 20-11-20Z" fill="url(#metal)"/><path d="m259 70 22 12-22 12 22 12-22 12 22 12-22 12" fill="none"/></g></symbol>
<symbol id="measure" viewBox="0 0 600 380"><use href="#flange"/><g transform="translate(80 34)" stroke="#444" stroke-width="2"><path d="M60 66h320v20H60Z" fill="#ddd"/><path d="M68 66V24h18v62h-8v75H62V86H45V66Z" fill="#aaa"/><path d="M275 66V24h18v62h-8v75h-16V86h-17V66Z" fill="#aaa"/><path d="M100 67v10m20-10v7m20-7v10m20-10v7m20-7v10m20-10v7m20-7v10m20-10v7m70-7v10m20-10v7"/></g></symbol>
<symbol id="tools" viewBox="0 0 600 380"><g stroke="#555" stroke-width="2" stroke-linejoin="round"><path d="M150 65h40v120h-40Z" fill="url(#metal)"/><path d="M153 185h34v100l-17 29-17-29Z" fill="#bbb"/><path d="m153 193 34 18-34 18 34 18-34 18 34 18" fill="none"/><path d="M284 65h40v100h-40Z" fill="url(#metal)"/><path d="M279 165h50v142h-50Z" fill="#ccc"/><path d="m280 173 47 25-47 25 47 25-47 25 47 25" fill="none"/><path d="M417 65h40v189h-40Z" fill="url(#metal)"/><path d="m417 254 40 17-30 41-22-5Z" fill="#999"/><path d="M124 337h362" stroke="#aaa"/></g></symbol>
</svg>
